<svg width="860" height="260" viewBox="0 0 860 260" fill="none" xmlns="http://www.w3.org/2000/svg">
  <style>
    @font-face {
      font-family: "Fredoka";
      src: url("./fonts/fredoka.ttf") format("truetype");
    }

    @font-face {
      font-family: "Nunito";
      src: url("./fonts/nunito.ttf") format("truetype");
    }
  </style>
  <rect width="860" height="260" rx="32" fill="#FFF7E8"/>
  <circle cx="138" cy="122" r="92" fill="#8A88E8"/>
  <ellipse cx="137" cy="222" rx="82" ry="12" fill="#2F34551F"/>

  <g transform="translate(28 8)">
    <path d="M120 45C104 11 76 6 71 35C69 51 73 66 83 81L120 45Z" fill="#2A2A33"/>
    <path d="M162 45C178 11 206 6 211 35C213 51 209 66 199 81L162 45Z" fill="#2A2A33"/>
    <path d="M121 54C108 30 84 28 82 48C81 58 84 67 92 77L121 54Z" fill="#7A7A84"/>
    <path d="M161 54C174 30 198 28 200 48C201 58 198 67 190 77L161 54Z" fill="#7A7A84"/>
    <path d="M128 65C117 49 99 49 96 64C95 72 98 79 105 87L128 65Z" fill="#FFFFFF"/>
    <path d="M154 65C165 49 183 49 186 64C187 72 184 79 177 87L154 65Z" fill="#FFFFFF"/>

    <path d="M140 52C192 52 225 83 225 123C225 162 194 190 140 190C86 190 55 162 55 123C55 83 88 52 140 52Z" fill="#6E6E76"/>
    <path d="M68 116C77 90 104 70 140 70C176 70 203 90 212 116L193 145C182 136 170 130 157 127C151 126 145 125 140 125C135 125 129 126 123 127C110 130 98 136 87 145L68 116Z" fill="#FFFFFF"/>

    <path d="M78 117C92 91 111 86 127 97C122 116 112 132 93 144L72 132C73 126 75 121 78 117Z" fill="#232328"/>
    <path d="M202 117C188 91 169 86 153 97C158 116 168 132 187 144L208 132C207 126 205 121 202 117Z" fill="#232328"/>

    <path d="M94 111C100 102 110 103 117 112C112 124 103 125 94 111Z" fill="#17171C"/>
    <path d="M186 111C180 102 170 103 163 112C168 124 177 125 186 111Z" fill="#17171C"/>

    <path d="M119 138C126 133 134 131 140 131C146 131 154 133 161 138C154 155 147 164 140 164C133 164 126 155 119 138Z" fill="#FFFFFF"/>
    <ellipse cx="140" cy="134" rx="10" ry="7" fill="#18181E"/>
    <path d="M133 146C136 150 138 152 140 152C142 152 144 150 147 146" stroke="#18181E" stroke-width="4.5" stroke-linecap="round"/>
    <path d="M136 151C138 157 141 160 145 160C149 160 151 157 152 154" stroke="#E45C8C" stroke-width="5" stroke-linecap="round"/>
    <ellipse cx="109" cy="138" rx="9" ry="5" fill="#F6C1CF"/>
    <ellipse cx="171" cy="138" rx="9" ry="5" fill="#F6C1CF"/>
    <path d="M205 112L218 109L211 121L223 124L209 130" fill="#18181E"/>
    <path d="M113 157C126 164 154 164 167 157L159 170L140 167L121 170Z" fill="#18181E"/>
    <path d="M129 167L121 182L135 176L140 167Z" fill="#18181E"/>
    <path d="M151 167L159 182L145 176L140 167Z" fill="#18181E"/>

    <path d="M79 185C79 157 99 140 123 140C133 140 138 147 140 156C142 147 147 140 157 140C181 140 201 157 201 185C201 214 177 232 140 232C103 232 79 214 79 185Z" fill="#54545D"/>
    <path d="M61 165C48 161 38 170 38 185C38 201 52 211 67 205C75 202 79 196 82 188L88 170L61 165Z" fill="#232328"/>
    <path d="M219 165C232 161 242 170 242 185C242 201 228 211 213 205C205 202 201 196 198 188L192 170L219 165Z" fill="#232328"/>
    <ellipse cx="85" cy="208" rx="18" ry="22" fill="#232328"/>
    <ellipse cx="195" cy="208" rx="18" ry="22" fill="#232328"/>

    <path d="M201 141C221 118 244 115 262 133C278 149 275 173 252 177C240 179 230 176 220 171C219 186 224 204 235 222C232 226 227 228 221 229C216 218 208 199 205 180C203 168 202 155 201 141Z" fill="#47474F"/>
    <path d="M210 145C226 128 242 129 252 139C262 149 259 162 245 166C237 168 229 166 221 161C221 174 225 188 233 201C231 205 228 207 224 208C214 189 210 168 210 145Z" fill="#5B5B64"/>
    <path d="M214 145C224 153 233 155 243 153" stroke="#2A2A33" stroke-width="10" stroke-linecap="round"/>
    <path d="M220 167C230 175 238 177 247 176" stroke="#2A2A33" stroke-width="10" stroke-linecap="round"/>
    <path d="M226 189C234 195 240 197 247 197" stroke="#2A2A33" stroke-width="10" stroke-linecap="round"/>

    <g transform="translate(97 161) rotate(-4 43 34)">
      <rect x="0" y="10" width="86" height="66" rx="16" fill="#C88A4B"/>
      <rect x="8" y="18" width="70" height="50" rx="11" fill="#FFF6DE"/>
      <rect x="27" y="0" width="32" height="18" rx="8" fill="#5F6672"/>
      <rect x="34" y="4" width="18" height="8" rx="4" fill="#E7ECF2"/>
      <rect x="18" y="31" width="9" height="9" rx="3" fill="#73D9B3"/>
      <path d="M20 35L23 38L28 31" stroke="#FFFFFF" stroke-width="2.6" stroke-linecap="round" stroke-linejoin="round"/>
      <rect x="18" y="45" width="9" height="9" rx="3" fill="#FFC94A"/>
      <rect x="33" y="31" width="28" height="4" rx="2" fill="#FF7A6B"/>
      <rect x="33" y="37" width="22" height="4" rx="2" fill="#FFBE6B"/>
      <rect x="33" y="46" width="26" height="4" rx="2" fill="#7CC4F4"/>
      <rect x="33" y="52" width="19" height="4" rx="2" fill="#A7DCC6"/>
    </g>
    <ellipse cx="98" cy="192" rx="15" ry="13" fill="#232328"/>
    <ellipse cx="183" cy="192" rx="15" ry="13" fill="#232328"/>
    <path d="M85 184C91 179 96 180 102 184" stroke="#5A5A62" stroke-width="4" stroke-linecap="round"/>
    <path d="M178 184C184 179 189 180 195 184" stroke="#5A5A62" stroke-width="4" stroke-linecap="round"/>
  </g>

  <g transform="translate(304 56)">
    <text x="0" y="76" fill="#FFC94A" stroke="#243043" stroke-width="2.4" paint-order="stroke fill" font-family="'Fredoka', 'Trebuchet MS', 'Segoe UI', sans-serif" font-size="62" font-weight="800">Task</text>
    <text x="132" y="78" fill="#FF8E7D" stroke="#243043" stroke-width="2.4" paint-order="stroke fill" font-family="'Fredoka', 'Trebuchet MS', 'Segoe UI', sans-serif" font-size="62" font-weight="800">Bandit</text>
    <text x="2" y="110" fill="#243043" font-family="'Fredoka', 'Trebuchet MS', 'Segoe UI', sans-serif" font-size="17" font-weight="700" letter-spacing="0.8">PLAYFUL CHORE CREW FOR HOME</text>
    <rect x="0" y="132" width="332" height="12" rx="6" fill="#73D9B3"/>
    <rect x="0" y="132" width="204" height="12" rx="6" fill="#FFC94A"/>
    <text x="0" y="174" fill="#243043" font-family="'Nunito', 'Segoe UI', sans-serif" font-size="21" font-weight="800">Cute raccoon energy. Chore-board confidence.</text>
  </g>
</svg>
